<svg width="512" height="512" viewBox="0 0 512 512" xmlns="http://www.w3.org/2000/svg"><circle cx="256" cy="256" r="256" fill="#E8EAF6"/><g transform="translate(96,96)"><rect x="20" y="60" width="120" height="100" rx="10" fill="#4E15C0" stroke="#1B629F" stroke-width="4"/><rect x="180" y="40" width="120" height="160" rx="10" fill="#4E15C0" stroke="#1B629F" stroke-width="4"/><path d="M70 160 L200 120" stroke="#1B629F" stroke-width="8" stroke-linecap="round"/><circle cx="200" cy="120" r="8" fill="#1B629F"/><path d="M45 85 L115 85 M45 105 L115 105 M45 125 L115 125" stroke="#fff" stroke-width="4" stroke-linecap="round"/><path d="M200 65 L270 65 M200 85 L270 85 M200 105 L270 105 M200 125 L270 125 M200 145 L270 145 M200 165 L270 165" stroke="#fff" stroke-width="4" stroke-linecap="round"/></g></svg>